<svg width="170" height="55" viewBox="0 0 170 55" fill="none" xmlns="http://www.w3.org/2000/svg">
<g clip-path="url(#clip0_1_4223)">
<path d="M78.7286 8.84757L71.286 29.9445H65.7716L58.418 8.84757H63.6623L68.1681 23.5297C68.4109 24.324 68.5545 25.0249 68.6057 25.6324H68.698C68.7698 24.9749 68.9237 24.2539 69.1664 23.4696L73.6415 8.84424H78.7286V8.84757Z" fill="white"/>
<path d="M95.9042 29.948H82.9438V8.85107H95.4085V12.7194H87.8121V17.412H94.8786V21.2669H87.8121V26.0931H95.9042V29.948Z" fill="white"/>
<path d="M119.609 29.948H114.02L110.659 24.5177C110.41 24.1072 110.167 23.7367 109.934 23.4129C109.702 23.0892 109.47 22.8122 109.234 22.5819C108.998 22.3516 108.752 22.1747 108.495 22.0512C108.239 21.9277 107.962 21.8676 107.658 21.8676H106.345V29.9446H101.48V8.84766H109.196C114.44 8.84766 117.062 10.7601 117.062 14.585C117.062 15.3193 116.946 16.0001 116.717 16.6243C116.485 17.2484 116.16 17.8091 115.736 18.3098C115.316 18.8104 114.803 19.2409 114.208 19.6047C113.61 19.9685 112.943 20.2522 112.211 20.4592V20.5192C112.533 20.616 112.844 20.7762 113.145 20.9965C113.445 21.2168 113.736 21.4738 114.02 21.7675C114.3 22.0612 114.57 22.3783 114.827 22.7154C115.083 23.0525 115.316 23.3862 115.527 23.71L119.609 29.948ZM106.348 12.4089V18.2797H108.458C109.504 18.2797 110.341 17.986 110.974 17.3986C111.616 16.8012 111.938 16.0602 111.938 15.1757C111.938 13.3334 110.806 12.4089 108.546 12.4089H106.348Z" fill="white"/>
<path d="M139.975 20.8096C139.975 27.1444 136.949 30.3151 130.901 30.3151C125.035 30.3151 122.102 27.2211 122.102 21.0299V8.84766H126.983V21.09C126.983 24.5043 128.351 26.2099 131.083 26.2099C133.766 26.2099 135.106 24.5611 135.106 21.2669V8.851H139.975V20.8096Z" fill="white"/>
<path d="M169.663 29.9481H164.856V17.3253C164.856 15.9636 164.917 14.455 165.037 12.8095H164.917C164.668 14.1045 164.439 15.0357 164.241 15.6065L159.177 29.9515H155.198L150.043 15.7533C149.902 15.3695 149.677 14.3916 149.366 12.8095H149.229C149.359 14.8889 149.424 16.7145 149.424 18.2832V29.9515H145.038V8.85449H152.166L156.583 21.3605C156.935 22.3618 157.191 23.3664 157.352 24.3777H157.441C157.711 23.2095 157.998 22.1949 158.299 21.3338L162.716 8.85783H169.663V29.9481Z" fill="white"/>
<path d="M29.3284 19.8633C28.9792 19.315 28.5372 18.6117 28.0024 17.9513C26.3908 20.2948 25.0746 23.0364 25.0746 23.0364C27.8584 27.8068 28.2296 32.0908 28.2442 32.7559V49.1889C13.9955 47.5368 6.45722 40.7805 5.8272 29.0798C5.64406 25.6898 5.73197 15.2908 5.79057 9.99114C10.9333 11.1641 14.8966 13.0546 17.9588 15.2574C18.2029 14.8307 18.4545 14.3992 18.7182 13.97C19.3873 12.8758 20.0784 11.8411 20.7792 10.8756C11.1775 3.95962 0.393887 3.62109 0.393887 3.62109C0.393887 3.62109 0.237602 25.0509 0.442725 29.9547C1.06542 44.7284 14.1567 55.5684 33.3381 54.8175C33.3234 49.1889 33.3381 34.6107 33.3381 32.9061C33.3381 31.2016 33.8118 26.8651 29.3284 19.8633Z" fill="white"/>
<path d="M48.9666 0.14502C31.3529 1.34656 23.6193 10.7514 20.5913 15.9319C16.711 22.5689 16.4473 29.5683 16.4424 29.8187V29.8401C16.3521 36.5654 20.3495 41.6266 25.5509 44.0392V37.9839C22.5815 35.6833 20.5156 31.826 21.4826 26.9555C22.9673 19.4626 29.331 7.97646 44.051 5.39697C44.051 8.3126 44.051 19.5865 44.051 23.3699C44.051 25.7301 44.3709 30.4361 43.123 33.5019C41.6994 37.004 38.9107 38.9351 36.0658 39.7957V45.1812C40.7788 44.1203 45.0082 41.0187 47.0619 36.5129C48.9935 32.2742 48.9227 28.5957 48.93 27.0961C48.9691 19.2814 48.969 3.27521 48.9666 0.14502Z" fill="#3CBEAA"/>
<path d="M70.4414 45.9888L69.8682 44.1069H66.9858L66.4126 45.9888H64.6064L67.3968 38.0502H69.4464L72.2475 45.9888H70.4414ZM69.468 42.7009C68.938 40.9956 68.6388 40.0313 68.5703 39.8078C68.5054 39.5842 68.4585 39.4076 68.4297 39.2778C68.3107 39.7393 67.97 40.8803 67.4076 42.7009H69.468ZM76.2493 41.549H79.3857V45.6481C78.8774 45.8139 78.3979 45.9293 77.9473 45.9942C77.5002 46.0627 77.0424 46.0969 76.5737 46.0969C75.3804 46.0969 74.4683 45.7472 73.8374 45.0478C73.2101 44.3448 72.8965 43.3372 72.8965 42.0249C72.8965 40.7487 73.2606 39.7537 73.9888 39.0399C74.7207 38.326 75.7337 37.9691 77.028 37.9691C77.8391 37.9691 78.6214 38.1314 79.3749 38.4558L78.8179 39.7969C78.2411 39.5085 77.6408 39.3643 77.0172 39.3643C76.2925 39.3643 75.7121 39.6077 75.2759 40.0944C74.8396 40.5811 74.6215 41.2354 74.6215 42.0574C74.6215 42.9154 74.7964 43.5715 75.1461 44.0258C75.4994 44.4764 76.0113 44.7017 76.6819 44.7017C77.0316 44.7017 77.3867 44.6657 77.7472 44.5936V42.9442H76.2493V41.549ZM82.9494 41.5923H83.4902C84.0201 41.5923 84.4113 41.504 84.6637 41.3273C84.916 41.1507 85.0422 40.8731 85.0422 40.4945C85.0422 40.1196 84.9124 39.8528 84.6528 39.6942C84.3969 39.5356 83.9985 39.4563 83.4577 39.4563H82.9494V41.5923ZM82.9494 42.955V45.9888H81.273V38.0827H83.5767C84.651 38.0827 85.446 38.2792 85.9615 38.6721C86.477 39.0615 86.7348 39.6545 86.7348 40.4513C86.7348 40.9163 86.6068 41.3309 86.3509 41.695C86.0949 42.0556 85.7326 42.3386 85.2639 42.5441C86.4536 44.3214 87.2287 45.4696 87.5892 45.9888H85.729L83.8417 42.955H82.9494ZM95.7603 42.0249C95.7603 43.3336 95.4358 44.3394 94.7869 45.0424C94.138 45.7454 93.2078 46.0969 91.9965 46.0969C90.7852 46.0969 89.8551 45.7454 89.2061 45.0424C88.5572 44.3394 88.2328 43.33 88.2328 42.0141C88.2328 40.6982 88.5572 39.6942 89.2061 39.002C89.8587 38.3062 90.7924 37.9583 92.0073 37.9583C93.2223 37.9583 94.1506 38.308 94.7923 39.0074C95.4376 39.7068 95.7603 40.7126 95.7603 42.0249ZM89.9903 42.0249C89.9903 42.9082 90.1579 43.5733 90.4932 44.0204C90.8285 44.4674 91.3296 44.6909 91.9965 44.6909C93.334 44.6909 94.0028 43.8023 94.0028 42.0249C94.0028 40.244 93.3376 39.3535 92.0073 39.3535C91.3404 39.3535 90.8375 39.5788 90.4986 40.0295C90.1597 40.4765 89.9903 41.1417 89.9903 42.0249ZM103.326 45.9888H101.649V39.4779H99.5024V38.0827H105.473V39.4779H103.326V45.9888ZM108.366 41.5923H108.906C109.436 41.5923 109.828 41.504 110.08 41.3273C110.332 41.1507 110.458 40.8731 110.458 40.4945C110.458 40.1196 110.329 39.8528 110.069 39.6942C109.813 39.5356 109.415 39.4563 108.874 39.4563H108.366V41.5923ZM108.366 42.955V45.9888H106.689V38.0827H108.993C110.067 38.0827 110.862 38.2792 111.378 38.6721C111.893 39.0615 112.151 39.6545 112.151 40.4513C112.151 40.9163 112.023 41.3309 111.767 41.695C111.511 42.0556 111.149 42.3386 110.68 42.5441C111.87 44.3214 112.645 45.4696 113.005 45.9888H111.145L109.258 42.955H108.366ZM118.84 45.9888L118.267 44.1069H115.385L114.812 45.9888H113.005L115.796 38.0502H117.845L120.647 45.9888H118.84ZM117.867 42.7009C117.337 40.9956 117.038 40.0313 116.969 39.8078C116.904 39.5842 116.858 39.4076 116.829 39.2778C116.71 39.7393 116.369 40.8803 115.807 42.7009H117.867ZM128.207 41.96C128.207 43.2615 127.835 44.2583 127.093 44.9505C126.354 45.6427 125.285 45.9888 123.886 45.9888H121.647V38.0827H124.129C125.42 38.0827 126.422 38.4234 127.136 39.1047C127.85 39.7861 128.207 40.7379 128.207 41.96ZM126.465 42.0033C126.465 40.3053 125.715 39.4563 124.216 39.4563H123.323V44.6044H124.043C125.658 44.6044 126.465 43.7374 126.465 42.0033ZM129.845 45.9888V38.0827H131.522V45.9888H129.845ZM140.525 45.9888H138.395L134.955 40.0078H134.907C134.975 41.0641 135.009 41.8176 135.009 42.2683V45.9888H133.512V38.0827H135.626L139.06 44.0041H139.098C139.044 42.9767 139.017 42.2502 139.017 41.8248V38.0827H140.525V45.9888ZM145.522 41.549H148.659V45.6481C148.15 45.8139 147.671 45.9293 147.22 45.9942C146.773 46.0627 146.315 46.0969 145.847 46.0969C144.653 46.0969 143.741 45.7472 143.11 45.0478C142.483 44.3448 142.169 43.3372 142.169 42.0249C142.169 40.7487 142.533 39.7537 143.262 39.0399C143.994 38.326 145.007 37.9691 146.301 37.9691C147.112 37.9691 147.894 38.1314 148.648 38.4558L148.091 39.7969C147.514 39.5085 146.914 39.3643 146.29 39.3643C145.565 39.3643 144.985 39.6077 144.549 40.0944C144.112 40.5811 143.894 41.2354 143.894 42.0574C143.894 42.9154 144.069 43.5715 144.419 44.0258C144.772 44.4764 145.284 44.7017 145.955 44.7017C146.304 44.7017 146.66 44.6657 147.02 44.5936V42.9442H145.522V41.549Z" fill="#3CBEAA"/>
</g>
<defs>
<clipPath id="clip0_1_4223">
<rect width="169.326" height="55" fill="white" transform="translate(0.336914)"/>
</clipPath>
</defs>
</svg>
